# Blender v2.75 (sub 0) OBJ File: 'Octa.blend'
# www.blender.org
o Icosphere_Icosphere.001
v -0.276388 0.447220 -0.850649
v 0.723607 0.447220 -0.525725
v 0.723607 0.447220 0.525725
v -0.276388 0.447220 0.850649
v -0.894426 0.447216 0.000000
v 0.000000 1.000000 0.000000
v -0.951058 0.000000 -0.309013
v -0.951058 0.000000 0.309013
v 0.000000 0.000000 -1.000000
v -0.587786 0.000000 -0.809017
v 0.951058 0.000000 -0.309013
v 0.587786 0.000000 -0.809017
v 0.587786 0.000000 0.809017
v 0.951058 0.000000 0.309013
v -0.587786 0.000000 0.809017
v 0.000000 0.000000 1.000000
v -0.688189 0.525736 -0.499997
v 0.262869 0.525738 -0.809012
v 0.850648 0.525736 0.000000
v 0.262869 0.525738 0.809012
v -0.688189 0.525736 0.499997
v -0.162456 0.850654 -0.499995
v -0.525730 0.850652 0.000000
v 0.425323 0.850654 -0.309011
v 0.425323 0.850654 0.309011
v -0.162456 0.850654 0.499995
vt 0.213065 0.382253
vt 0.339671 0.254808
vt 0.368900 0.432886
vt 0.322666 0.719565
vt 0.240583 0.559774
vt 0.418977 0.587003
vt 0.677334 0.719564
vt 0.500000 0.748251
vt 0.581023 0.587003
vt 0.786935 0.382253
vt 0.759417 0.559774
vt 0.631100 0.432886
vt 0.500000 0.173780
vt 0.660329 0.254808
vt 0.500000 0.337635
vt 0.500000 0.475482
vt 0.654634 0.000098
vt 0.904332 0.181513
vt 0.999903 0.475649
vt 0.904527 0.769184
vt 0.654318 0.950970
vt 0.345682 0.950970
vt 0.095473 0.769184
vt 0.000098 0.475649
vt 0.095668 0.181513
vt 0.345365 0.000098
vn -0.408900 0.661700 -0.628400
vn 0.471300 0.661700 -0.583100
vn 0.700200 0.661700 0.268000
vn -0.038500 0.661700 0.748800
vn -0.724000 0.661700 0.194700
vn -0.268000 0.943500 0.194700
vn -0.491100 0.794700 0.356800
vn -0.408900 0.661700 0.628400
vn 0.102400 0.943500 0.315100
vn 0.187600 0.794700 0.577300
vn 0.471300 0.661700 0.583100
vn 0.331300 0.943500 0.000000
vn 0.607100 0.794700 0.000000
vn 0.700200 0.661700 -0.268000
vn 0.102400 0.943500 -0.315100
vn 0.187600 0.794700 -0.577300
vn -0.038500 0.661700 -0.748800
vn -0.268000 0.943500 -0.194700
vn -0.491100 0.794700 -0.356800
vn -0.724000 0.661700 -0.194700
vn -0.889700 0.330400 0.315100
vn -0.794700 0.187600 0.577300
vn -0.574600 0.330400 0.748800
vn 0.024700 0.330400 0.943500
vn 0.303500 0.187600 0.934200
vn 0.534600 0.330400 0.777900
vn 0.905000 0.330400 0.268000
vn 0.982200 0.187600 0.000000
vn 0.905000 0.330400 -0.268000
vn 0.534600 0.330400 -0.777900
vn 0.303500 0.187600 -0.934200
vn 0.024700 0.330400 -0.943500
vn -0.574600 0.330400 -0.748800
vn -0.794700 0.187600 -0.577300
vn -0.889700 0.330400 -0.315100
vn -0.306600 0.125600 0.943500
vn 0.802600 0.125600 0.583100
vn 0.802600 0.125600 -0.583100
vn -0.306600 0.125600 -0.943500
vn -0.992100 0.125600 0.000000
s off
f 1/1/1 17/2/1 22/3/1
f 2/4/2 18/5/2 24/6/2
f 3/7/3 19/8/3 25/9/3
f 4/10/4 20/11/4 26/12/4
f 5/13/5 21/14/5 23/15/5
f 23/15/6 26/12/6 6/16/6
f 23/15/7 21/14/7 26/12/7
f 21/14/8 4/10/8 26/12/8
f 26/12/9 25/9/9 6/16/9
f 26/12/10 20/11/10 25/9/10
f 20/11/11 3/7/11 25/9/11
f 25/9/12 24/6/12 6/16/12
f 25/9/13 19/8/13 24/6/13
f 19/8/14 2/4/14 24/6/14
f 24/6/15 22/3/15 6/16/15
f 24/6/16 18/5/16 22/3/16
f 18/5/17 1/1/17 22/3/17
f 22/3/18 23/15/18 6/16/18
f 22/3/19 17/2/19 23/15/19
f 17/2/20 5/13/20 23/15/20
f 8/17/21 21/14/21 5/13/21
f 8/17/22 15/18/22 21/14/22
f 15/18/23 4/10/23 21/14/23
f 16/19/24 20/11/24 4/10/24
f 16/19/25 13/20/25 20/11/25
f 13/20/26 3/7/26 20/11/26
f 14/21/27 19/8/27 3/7/27
f 14/21/28 11/22/28 19/8/28
f 11/22/29 2/4/29 19/8/29
f 12/23/30 18/5/30 2/4/30
f 12/23/31 9/24/31 18/5/31
f 9/24/32 1/1/32 18/5/32
f 10/25/33 17/2/33 1/1/33
f 10/25/34 7/26/34 17/2/34
f 7/26/35 5/13/35 17/2/35
f 15/18/36 16/19/36 4/10/36
f 13/20/37 14/21/37 3/7/37
f 11/22/38 12/23/38 2/4/38
f 9/24/39 10/25/39 1/1/39
f 7/26/40 8/17/40 5/13/40
