# Blender v2.75 (sub 0) OBJ File: 'Branch.blend'
# www.blender.org
o Cylinder
v 0.004104 -0.334498 -0.340220
v 0.179663 0.808654 0.000825
v 0.298650 -0.332838 -0.140406
v 0.213802 0.808654 0.020535
v 0.308002 -0.343508 0.184733
v 0.213802 0.808654 0.059956
v -0.015159 -0.340091 0.317510
v 0.179663 0.808654 0.079666
v -0.309255 -0.349230 0.155321
v 0.145523 0.808654 0.059956
v -0.309035 -0.319294 -0.159995
v 0.145523 0.808654 0.020535
v -0.000000 0.482245 -0.147194
v 0.127474 0.482245 -0.073597
v 0.127474 0.482245 0.073597
v -0.000000 0.482245 0.147194
v -0.127474 0.482245 0.073597
v -0.127474 0.482245 -0.073597
v 0.200832 0.033309 -0.126996
v 0.210786 0.053778 0.121004
v 0.005124 0.071054 0.252308
v -0.213963 0.050970 0.118437
v -0.206055 0.049447 -0.093372
v 0.002203 0.049844 -0.245831
v -0.000460 0.232910 -0.205332
v 0.181186 0.233813 -0.098814
v 0.172476 0.226646 0.090658
v 0.002121 0.213105 0.220859
v -0.176002 0.220118 0.122069
v -0.165461 0.237641 -0.096806
v 0.235994 -0.123410 -0.150744
v 0.236820 -0.126622 0.159613
v 0.009735 -0.125629 0.277690
v -0.271976 -0.152818 0.137111
v -0.253384 -0.119852 -0.148222
v 0.007786 -0.140477 -0.286946
v 0.105142 0.648925 -0.098667
v 0.190590 0.648925 -0.049334
v 0.190590 0.648925 0.049334
v 0.105142 0.648925 0.098667
v 0.019693 0.648925 0.049334
v 0.019693 0.648925 -0.049334
v -0.302171 0.650606 -0.052137
v -0.302171 0.650606 -0.079609
v -0.311228 0.601683 -0.043090
v -0.309261 0.604953 -0.083941
v 0.312627 0.274165 -0.473326
v 0.261086 0.278456 -0.504162
v 0.260395 0.325959 -0.493653
v 0.307530 0.326193 -0.466013
v 0.238638 0.224426 0.322816
v 0.186448 0.228811 0.356137
v 0.228916 0.268295 0.315116
v 0.185686 0.264859 0.348156
vt 0.796086 0.652550
vt 0.815982 0.649341
vt 0.801408 0.742791
vt 0.595530 0.000000
vt 0.605484 0.003236
vt 0.602515 0.088978
vt 0.625462 0.005985
vt 0.777111 0.090123
vt 0.740181 0.002238
vt 0.760216 0.000000
vt 0.321821 0.666122
vt 0.339744 0.704437
vt 0.310686 0.683885
vt 0.237015 0.663065
vt 0.217133 0.666122
vt 0.208045 0.565746
vt 0.318686 0.780249
vt 0.319647 0.703043
vt 0.558173 0.649341
vt 0.705011 0.763113
vt 0.539888 0.993762
vt 0.374197 0.873348
vt 0.374197 0.958761
vt 0.360192 0.957789
vt 0.294111 0.315082
vt 0.300563 0.449892
vt 0.226323 0.461307
vt 0.820936 0.186386
vt 0.895744 0.178029
vt 0.919187 0.323480
vt 0.593187 0.319918
vt 0.625432 0.182640
vt 0.700027 0.192904
vt 0.588265 0.170557
vt 0.709822 0.987347
vt 0.705011 0.848152
vt 0.779300 0.836173
vt 0.016506 0.771628
vt 0.025903 0.666122
vt 0.143748 0.676718
vt 0.513076 0.405019
vt 0.572668 0.414046
vt 0.559134 0.513307
vt 0.697323 0.422352
vt 0.688794 0.529988
vt 0.816261 0.524213
vt 0.814348 0.417333
vt 0.945740 0.412469
vt 0.292719 0.112625
vt 0.300175 0.211371
vt 0.169270 0.227979
vt 0.383695 0.112845
vt 0.366895 0.225931
vt 0.541988 0.300225
vt 0.392317 0.243441
vt 0.109613 0.996458
vt 0.000000 0.956773
vt 0.000000 0.927093
vt 0.815997 0.338264
vt 0.193756 0.326450
vt 0.362851 0.319806
vt 0.299707 0.000000
vt 0.142956 0.126039
vt 0.828782 0.642989
vt 0.977638 0.523178
vt 0.695707 0.649341
vt 0.442673 0.597459
vt 0.481342 0.486131
vt 0.000000 0.879500
vt 0.152246 0.764420
vt 0.299157 0.868141
vt 0.368987 0.783739
vt 0.257809 0.558094
vt 0.827257 0.084521
vt 0.652517 0.095858
vt 0.109613 0.967571
vt 0.109613 0.915919
vt 0.152059 0.879500
vt 0.751610 0.750821
vt 0.388912 0.516985
vt 0.380691 0.515067
vt 0.379487 0.489906
vt 0.995625 0.074572
vt 1.000000 0.101719
vt 0.392316 0.490788
vt 0.923302 0.767295
vt 0.983156 0.649341
vt 0.983156 0.864042
vt 0.154107 0.911530
vt 0.152059 0.881890
vt 0.178938 0.879500
vt 0.815982 0.859764
vt 0.852470 0.649341
vt 0.880318 0.649341
vt 0.006354 0.388984
vt 0.000000 0.363432
vt 0.299157 0.666122
vt 0.260207 0.888505
vt 0.229448 0.888505
vt 0.622591 0.337977
vt 0.627798 0.314090
vt 0.654911 0.320082
vt 0.815982 0.934510
vt 0.864992 0.859764
vt 0.881658 0.876383
vt 0.700027 0.346213
vt 0.577601 0.080878
vt 0.341918 0.667517
vt 0.350879 0.686674
vt 0.398318 0.731374
vt 0.392317 0.900800
vt 0.705011 0.935143
vt 0.700027 0.343527
vt 0.815981 0.969615
vt 0.399819 0.216248
vt 0.109613 0.879500
vt 0.392317 0.006288
vt 0.116571 0.020107
vt 1.000000 0.629596
vt 0.519962 0.629574
vt 0.180620 0.879500
vt 0.152059 0.956557
vt 0.971985 0.886057
vt 0.178938 0.912210
vt 0.923302 0.859763
vt 0.180620 0.666122
vt 0.654224 0.340085
vt 0.881658 1.000000
vt 0.700445 0.326148
vn 0.478100 0.292700 -0.828100
vn 0.989600 -0.143800 0.000000
vn 0.495800 -0.129200 0.858800
vn -0.473900 0.318800 0.820900
vn 0.000000 1.000000 0.000000
vn -0.395600 0.611400 -0.685300
vn -0.785500 0.618800 0.000000
vn 0.011200 -0.999900 -0.008200
vn 0.693900 0.720000 0.000000
vn -0.493700 0.157800 -0.855200
vn -0.484800 0.245000 0.839600
vn 0.494800 0.144300 0.857000
vn 0.984900 0.173400 0.000000
vn 0.490200 0.197100 -0.849000
vn 0.515400 0.195400 -0.834400
vn 0.990000 0.132000 -0.050600
vn 0.541400 0.120100 0.832200
vn -0.525400 0.096800 0.845300
vn -0.543800 0.392400 -0.741800
vn -0.962000 0.270400 -0.037900
vn 0.941100 0.045100 0.335100
vn 0.972900 0.225000 0.053200
vn -0.180800 0.974200 -0.135300
vn -0.471500 0.181100 0.863100
vn -0.537600 0.174700 -0.824900
vn -0.977200 0.210200 -0.030200
vn -0.962200 0.270400 -0.031500
vn -0.450700 0.177400 -0.874900
vn -0.452600 0.213300 0.865800
vn 0.458900 0.110400 0.881600
vn 0.958000 0.286600 0.000400
vn 0.487300 0.222600 -0.844400
vn -0.749600 0.661900 0.000000
vn -0.434800 0.493600 -0.753200
vn -0.434800 0.493600 0.753200
vn 0.499000 -0.063100 0.864300
vn 0.935200 -0.354100 0.000000
vn 0.499000 -0.063100 -0.864300
vn -0.988200 0.153500 0.000000
vn -0.405500 0.238300 0.882500
vn -0.929500 -0.361300 -0.073700
vn 0.108500 0.077200 -0.991100
vn 0.498000 0.168400 -0.850700
vn -0.123300 0.971600 0.202000
vn -0.755800 0.130900 -0.641600
vn 0.232100 -0.832100 -0.503700
vn 0.572500 0.263200 0.776500
vn 0.949200 0.163100 -0.269000
vn 0.312600 -0.746200 0.587800
vn -0.592800 0.162100 0.788900
vn -0.473900 0.318700 0.820900
vn -0.054300 -0.998500 -0.010100
vn 0.082700 -0.992100 -0.094100
vn -0.023800 -0.999200 -0.032100
vn -0.535400 0.192700 -0.822300
vn -0.465000 0.230300 0.854800
vn 0.581400 0.219000 0.783500
vn 0.977100 0.205900 0.052700
vn 0.495600 0.193100 -0.846800
vn 0.484900 0.236400 -0.842000
vn 0.975700 0.219000 -0.000300
vn 0.447700 0.248400 0.859000
vn -0.452700 0.208300 0.867000
vn -0.450900 0.175800 -0.875100
vn -0.960000 0.278200 -0.030400
vn 0.993400 0.104100 -0.048500
vn -0.525400 0.099800 0.845000
vn -0.587100 0.112000 -0.801700
vn -0.974900 0.219600 -0.038000
vn -0.982000 0.188000 0.017200
vn -0.475300 0.241300 -0.846100
vn -0.479900 0.170900 0.860500
vn 0.372200 0.226400 0.900100
vn 0.950600 0.310000 -0.017200
vn 0.556400 0.125900 -0.821300
vn -0.983800 0.176000 -0.033300
vn 0.515600 0.192200 -0.835000
vn 0.539500 0.192900 0.819600
s off
f 2/1/1 4/2/1 38/3/1
f 4/4/2 6/5/2 39/6/2
f 39/6/3 6/5/3 8/7/3
f 40/8/4 8/9/4 10/10/4
f 6/11/5 12/12/5 8/13/5
f 12/14/6 2/15/6 37/16/6
f 41/17/7 10/18/7 12/12/7
f 1/19/8 3/20/8 7/21/8
f 18/22/9 44/23/9 43/24/9
f 30/25/10 18/26/10 13/27/10
f 16/28/11 17/29/11 29/30/11
f 27/31/12 15/32/12 16/33/12
f 14/34/13 15/32/13 27/31/13
f 25/35/14 13/36/14 14/37/14
f 36/38/15 24/39/15 19/40/15
f 19/41/16 20/42/16 32/43/16
f 20/42/17 21/44/17 33/45/17
f 33/46/18 21/47/18 22/48/18
f 35/49/19 23/50/19 24/51/19
f 34/52/20 22/53/20 23/50/20
f 26/54/21 19/41/21 47/55/21
f 26/54/22 27/31/22 20/42/22
f 28/56/23 54/57/23 53/58/23
f 21/47/24 28/59/24 29/30/24
f 30/25/25 25/60/25 24/51/25
f 29/61/26 30/25/26 23/50/26
f 34/52/27 35/49/27 11/62/27
f 11/62/28 35/49/28 36/63/28
f 7/64/29 33/46/29 34/65/29
f 32/43/30 33/45/30 7/66/30
f 3/67/31 31/68/31 32/43/31
f 1/69/32 36/38/32 31/70/32
f 17/71/33 41/17/33 42/72/33
f 42/73/34 37/16/34 13/27/34
f 16/28/35 40/8/35 41/74/35
f 15/32/36 39/6/36 40/75/36
f 38/76/37 39/77/37 15/78/37
f 37/79/38 38/3/38 14/37/38
f 43/80/39 44/81/39 46/82/39
f 17/29/40 43/83/40 45/84/40
f 30/25/41 29/61/41 45/85/41
f 18/86/42 30/87/42 46/88/42
f 49/89/43 50/90/43 47/91/43
f 26/92/44 50/93/44 49/94/44
f 25/60/45 49/95/45 48/96/45
f 24/97/46 48/98/46 47/99/46
f 51/100/47 53/101/47 54/102/47
f 27/103/48 53/104/48 51/105/48
f 21/44/49 20/42/49 51/100/49
f 28/59/50 21/47/50 52/106/50
f 37/79/1 2/1/1 38/3/1
f 38/107/2 4/4/2 39/6/2
f 40/75/3 39/6/3 8/7/3
f 41/74/51 40/8/51 10/10/51
f 12/12/5 6/11/5 4/108/5
f 12/12/5 10/18/5 8/13/5
f 4/108/5 2/109/5 12/12/5
f 42/73/6 12/14/6 37/16/6
f 42/72/7 41/17/7 12/12/7
f 7/21/52 11/110/52 1/19/52
f 11/110/53 7/21/53 9/111/53
f 7/21/54 3/20/54 5/112/54
f 17/71/9 18/22/9 43/24/9
f 25/60/55 30/25/55 13/27/55
f 28/59/56 16/28/56 29/30/56
f 28/113/57 27/31/57 16/33/57
f 26/54/58 14/34/58 27/31/58
f 26/114/59 25/35/59 14/37/59
f 31/70/60 36/38/60 19/40/60
f 31/68/61 19/41/61 32/43/61
f 32/43/62 20/42/62 33/45/62
f 34/65/63 33/46/63 22/48/63
f 36/63/64 35/49/64 24/51/64
f 35/49/65 34/52/65 23/50/65
f 50/115/21 26/54/21 47/55/21
f 19/41/66 26/54/66 20/42/66
f 27/116/23 28/56/23 53/58/23
f 22/48/67 21/47/67 29/30/67
f 23/50/68 30/25/68 24/51/68
f 22/53/69 29/61/69 23/50/69
f 9/117/70 34/52/70 11/62/70
f 1/118/71 11/62/71 36/63/71
f 9/119/72 7/64/72 34/65/72
f 5/120/73 32/43/73 7/66/73
f 5/120/74 3/67/74 32/43/74
f 3/121/75 1/69/75 31/70/75
f 18/22/33 17/71/33 42/72/33
f 18/26/34 42/73/34 13/27/34
f 17/29/35 16/28/35 41/74/35
f 16/33/36 15/32/36 40/75/36
f 14/122/37 38/76/37 15/78/37
f 13/36/38 37/79/38 14/37/38
f 45/85/76 43/80/76 46/82/76
f 29/30/40 17/29/40 45/84/40
f 46/82/41 30/25/41 45/85/41
f 44/123/42 18/86/42 46/88/42
f 48/124/77 49/89/77 47/91/77
f 25/125/44 26/92/44 49/94/44
f 24/51/45 25/60/45 48/96/45
f 19/126/46 24/97/46 47/99/46
f 52/127/78 51/100/78 54/102/78
f 20/128/48 27/103/48 51/105/48
f 52/127/49 21/44/49 51/100/49
f 54/129/50 28/59/50 52/106/50
