v -0.073733 -1.536798 0.402277
v 1.186586 -0.861319 1.597560
v -0.203292 -0.558596 1.652030
v -1.430956 -0.483154 -0.261980
v -1.003924 -0.886219 -1.226303
v 0.561881 -0.967360 -0.070144
v 0.461702 0.195002 1.438927
v -0.996070 0.840019 0.702567
v -0.782304 1.061167 -0.846165
v 0.273309 0.498934 -1.095087
v 1.454260 0.124165 0.786468
v 0.156023 1.283220 0.016490
v -0.171850 -1.178497 0.985482
v 0.647104 -1.420397 1.069139
v 0.542251 -0.863402 1.585296
v 1.134625 -1.207655 0.880714
v 0.273866 -1.617477 0.295026
v -0.787827 -1.087775 0.082278
v -1.120732 -0.496947 0.734815
v -0.677032 -1.378047 -0.374735
v -1.085237 -0.662591 -0.841296
v -0.370320 -1.229098 -0.799797
v 1.441145 -0.350309 1.114442
v 1.306593 -0.447729 0.253285
v 0.318841 0.003943 1.882779
v 0.985212 -0.264164 1.637686
v -1.380272 0.235969 0.374163
v -0.877117 0.325831 1.352855
v -0.951122 0.183807 -1.180176
v -1.192476 0.193335 -0.512553
v 0.465874 -0.320126 -0.737936
v -0.480445 -0.176507 -1.214509
v 1.116336 0.099591 1.108297
v -0.177063 0.791440 1.120732
v -1.001381 0.917711 -0.078082
v -0.294332 0.945593 -1.258187
v 0.989297 0.369109 -0.242993
v 0.194366 0.796321 0.823283
v 0.820863 0.711437 0.428024
v -0.432575 1.230236 0.321662
v -0.224724 1.480912 -0.692363
v 0.368653 1.111293 -0.645195
vt 0.372888 0.279951
vt 0.346386 0.422301
vt 0.276830 0.327226
vt 0.831450 1.000000
vt 0.794628 0.874779
vt 0.883831 0.900622
vt 0.294575 0.166409
vt 0.372888 0.132917
vt 0.766898 0.731563
vt 0.776294 0.593890
vt 0.818363 0.745991
vt 0.933303 0.980634
vt 0.140627 0.385858
vt 0.225838 0.458366
vt 0.069440 0.453787
vt 0.198922 0.054779
vt 0.148692 0.193812
vt 0.054487 0.116708
vt 0.035568 0.892221
vt 0.039439 0.840408
vt 0.147388 0.893435
vt 0.918052 0.747631
vt 0.864200 0.574587
vt 1.000000 0.680988
vt 0.372888 0.890443
vt 0.376091 0.783793
vt 0.456043 0.857445
vt 0.000000 0.271395
vt 0.000000 0.767198
vt 0.065569 0.679574
vt 0.103378 0.803028
vt 0.379403 0.060097
vt 0.531800 0.000000
vt 0.479545 0.064477
vt 1.000000 0.864971
vt 0.567222 0.816526
vt 0.462129 0.760424
vt 0.648807 0.704777
vt 0.170100 0.626554
vt 0.266374 0.542833
vt 0.290997 0.669918
vt 0.250113 0.847903
vt 0.192035 0.740932
vt 0.362884 0.813909
vt 0.585388 0.102930
vt 0.630978 0.005086
vt 0.712278 0.114633
vt 0.711323 0.416039
vt 0.648242 0.259205
vt 0.758000 0.284445
vt 0.547484 0.640900
vt 0.628559 0.494350
vt 0.684949 0.570202
vt 0.743813 0.481229
vt 0.758000 0.030303
vt 0.311598 0.893435
vt 0.766898 0.632046
vt 0.704904 0.754564
vt 0.412065 0.707312
vt 0.582160 0.388921
vt 0.505792 0.207912
vt 0.122695 0.524197
vt 0.763380 0.842275
vt 0.577092 0.890443
vt 0.372888 0.182276
vt 0.157531 0.498482
vt 0.256400 0.524197
vt 0.676317 0.476535
vt 0.535384 0.481229
vt 0.841558 0.481229
vt 0.281062 0.029765
vt 0.343424 0.000000
vn -0.294200 -0.835600 0.463900
vn 0.485200 -0.800600 0.351600
vn -0.605100 -0.719700 0.340400
vn -0.602800 -0.731600 0.318500
vn -0.231600 -0.972600 -0.018900
vn 0.926600 -0.360500 0.107000
vn -0.053300 -0.336200 0.940300
vn -0.938200 -0.189800 0.289400
vn -0.969400 0.058100 -0.238500
vn 0.611700 -0.522300 -0.594200
vn 0.753800 0.212400 0.621800
vn -0.404900 0.000800 0.914300
vn -0.943600 0.254100 -0.212100
vn -0.038400 0.044900 -0.998300
vn 0.618200 -0.518100 -0.591100
vn 0.386800 0.738000 0.552900
vn -0.217800 0.824400 0.522400
vn -0.597600 0.801500 -0.020800
vn 0.549000 0.437700 -0.712100
vn 0.719000 0.675400 -0.164100
vn 0.648300 0.761300 0.010500
vn 0.790800 0.602300 -0.108800
vn 0.750400 0.311500 -0.583000
vn 0.530900 0.846000 -0.049200
vn 0.440300 0.624500 -0.645000
vn -0.356500 0.700200 -0.618600
vn 0.041300 0.967900 0.247800
vn -0.531700 0.841100 0.099000
vn -0.526300 0.845700 0.087800
vn 0.183900 0.845400 0.501500
vn 0.296800 0.873900 0.385000
vn 0.418700 0.733800 0.534900
vn 0.397800 0.793700 0.460100
vn 0.418300 0.758200 0.500200
vn 0.420200 0.757800 0.499100
vn 0.915100 0.122000 -0.384300
vn 0.751900 -0.103500 -0.651100
vn 0.753300 -0.105900 -0.649100
vn 0.220800 -0.074500 -0.972500
vn -0.090800 -0.023700 -0.995600
vn -0.539100 0.388300 -0.747400
vn -0.913600 0.357300 -0.193900
vn -0.907100 0.365000 -0.209700
vn -0.856100 0.513600 0.056900
vn -0.276700 0.728500 0.626700
vn -0.166900 0.629300 0.759000
vn 0.464500 0.749300 0.472000
vn 0.398200 0.707000 0.584400
vn 0.690100 0.505300 0.518100
vn 0.601200 0.443100 0.665000
vn 0.395700 -0.287300 -0.872300
vn 0.392000 -0.301400 -0.869200
vn 0.418800 -0.294600 -0.859000
vn -0.896500 0.297500 -0.328300
vn -0.940300 0.012800 -0.340100
vn -0.840700 0.099200 -0.532400
vn -0.854100 0.320500 0.409700
vn -0.882900 -0.085400 0.461700
vn -0.685000 -0.296900 0.665300
vn 0.473000 0.743700 0.472400
vn 0.239900 -0.259100 0.935600
vn -0.018700 -0.073300 0.997100
vn 0.982500 -0.123600 -0.139500
vn 0.945000 -0.307100 -0.112900
vn 0.628600 -0.574800 -0.523900
vn 0.597600 -0.577300 -0.556400
vn -0.003100 -0.943000 -0.332700
vn -0.180800 -0.880100 -0.438900
vn -0.886800 -0.455600 0.077300
vn -0.886400 -0.456700 0.075200
vn -0.635600 -0.758400 -0.144400
vn -0.727800 -0.650300 0.217500
vn -0.606200 -0.718400 0.341200
vn -0.580500 -0.609700 0.539700
vn 0.629700 -0.573400 -0.524200
vn 0.410700 -0.911100 0.033900
vn -0.126300 -0.945100 0.301500
vn -0.234500 -0.717300 0.656100
vn -0.270700 -0.681300 0.680200
vn -0.011700 -0.680800 0.732300
s off
f 1/1/1 14/2/1 13/3/1
f 2/4/2 14/5/2 16/6/2
f 1/1/3 13/3/3 18/7/3
f 1/1/4 18/7/4 20/8/4
f 1/9/5 20/10/5 17/11/5
f 2/4/6 16/6/6 23/12/6
f 3/13/7 15/14/7 25/15/7
f 4/16/8 19/17/8 27/18/8
f 5/19/9 21/20/9 29/21/9
f 6/22/10 22/23/10 31/24/10
f 2/25/11 23/26/11 26/27/11
f 3/13/12 25/15/12 28/28/12
f 4/29/13 27/30/13 30/31/13
f 5/32/14 29/33/14 32/34/14
f 6/22/15 31/24/15 24/35/15
f 7/36/16 33/37/16 38/38/16
f 8/39/17 34/40/17 40/41/17
f 9/42/18 35/43/18 41/44/18
f 10/45/19 36/46/19 42/47/19
f 11/48/20 37/49/20 39/50/20
f 39/51/21 42/52/21 12/53/21
f 39/50/22 37/49/22 42/47/22
f 37/49/23 10/45/23 42/47/23
f 42/52/24 41/54/24 12/53/24
f 42/47/25 36/46/25 41/55/25
f 36/56/26 9/42/26 41/44/26
f 41/54/27 40/57/27 12/53/27
f 41/44/28 35/43/28 40/41/28
f 35/43/29 8/39/29 40/41/29
f 40/57/30 38/38/30 12/53/30
f 40/57/31 34/58/31 38/38/31
f 34/58/32 7/36/32 38/38/32
f 38/38/33 39/51/33 12/53/33
f 38/38/34 33/37/34 39/51/34
f 33/37/35 11/59/35 39/51/35
f 24/60/36 37/49/36 11/48/36
f 24/60/37 31/61/37 37/49/37
f 31/61/38 10/45/38 37/49/38
f 32/34/39 36/46/39 10/45/39
f 32/34/40 29/33/40 36/46/40
f 29/21/41 9/42/41 36/56/41
f 30/31/42 35/43/42 9/42/42
f 30/31/43 27/30/43 35/43/43
f 27/30/44 8/39/44 35/43/44
f 28/62/45 34/40/45 8/39/45
f 28/63/46 25/64/46 34/58/46
f 25/64/47 7/36/47 34/58/47
f 26/27/48 33/37/48 7/36/48
f 26/27/49 23/26/49 33/37/49
f 23/26/50 11/59/50 33/37/50
f 31/61/51 32/34/51 10/45/51
f 31/61/52 22/65/52 32/34/52
f 22/65/53 5/32/53 32/34/53
f 29/21/54 30/31/54 9/42/54
f 29/21/55 21/20/55 30/31/55
f 21/20/56 4/29/56 30/31/56
f 27/30/57 28/62/57 8/39/57
f 27/18/58 19/17/58 28/28/58
f 19/17/59 3/13/59 28/28/59
f 25/64/60 26/27/60 7/36/60
f 25/15/61 15/14/61 26/66/61
f 15/14/62 2/67/62 26/66/62
f 23/68/63 24/60/63 11/48/63
f 23/68/64 16/69/64 24/60/64
f 16/6/65 6/22/65 24/35/65
f 17/11/66 22/23/66 6/22/66
f 17/11/67 20/10/67 22/23/67
f 20/10/68 5/70/68 22/23/68
f 20/8/69 21/71/69 5/72/69
f 20/8/70 18/7/70 21/71/70
f 18/7/71 4/16/71 21/71/71
f 18/7/72 19/17/72 4/16/72
f 18/7/73 13/3/73 19/17/73
f 13/3/74 3/13/74 19/17/74
f 16/6/75 17/11/75 6/22/75
f 16/6/76 14/5/76 17/11/76
f 14/5/77 1/9/77 17/11/77
f 13/3/78 15/14/78 3/13/78
f 13/3/79 14/2/79 15/14/79
f 14/2/80 2/67/80 15/14/80
