# Blender v2.75 (sub 0) OBJ File: 'Sheep.blend'
# www.blender.org
v -0.528305 -0.049597 -0.249989
v -0.425580 0.560648 -0.212809
v -0.545986 -0.049885 -0.490649
v -0.440067 0.560413 -0.409989
v -0.297065 -0.116473 -0.266898
v -0.236118 0.505855 -0.226663
v -0.314746 -0.116761 -0.507559
v -0.250605 0.505619 -0.423843
v -0.749061 0.471495 -0.254573
v -0.384232 0.839378 -0.221585
v -0.531249 0.621386 0.174751
v -1.076496 0.505771 0.138194
v -1.220583 0.639672 -0.304205
v -0.819500 0.870335 -0.506982
v -0.518724 1.077554 0.153818
v -0.901775 0.914269 0.392555
v -1.283237 0.966664 0.101761
v -1.148652 1.150269 -0.333543
v -0.623260 1.254445 -0.274366
v -0.954986 1.305466 0.097807
v 0.222299 0.128124 -0.307825
v 0.997693 0.746507 -0.181712
v 0.677110 0.345977 0.378468
v -0.419389 0.153354 0.310302
v -0.683810 0.359391 -0.393142
v 0.122523 0.812455 -0.631388
v 0.691551 1.038725 0.372555
v -0.046611 0.840384 0.746748
v -0.718370 0.987377 0.276670
v -0.444787 1.257911 -0.430828
v 0.576653 1.407288 -0.277145
v -0.081255 1.495821 0.263122
v -0.461574 -0.069913 0.541763
v -0.365867 0.538504 0.471021
v -0.476950 -0.113023 0.304834
v -0.378466 0.503182 0.276898
v -0.229467 -0.135849 0.538697
v -0.175696 0.484480 0.468509
v -0.244844 -0.178959 0.301768
v -0.188294 0.449159 0.274386
v 0.498021 -0.099548 -0.322789
v 0.417466 0.502664 -0.199554
v 0.486063 -0.070356 -0.562028
v 0.407669 0.526582 -0.395569
v 0.739005 -0.094345 -0.334200
v 0.614911 0.506926 -0.208903
v 0.727047 -0.065153 -0.573439
v 0.605114 0.530844 -0.404918
v 0.386792 -0.047942 0.513671
v 0.353231 0.566298 0.436748
v 0.386569 -0.095394 0.277073
v 0.353049 0.527419 0.242897
v 0.627601 -0.063222 0.516509
v 0.550533 0.553778 0.439074
v 0.627378 -0.110674 0.279911
v 0.550350 0.514900 0.245222
vt 0.612839 0.586960
vt 0.601583 0.428894
vt 0.663881 0.432743
vt 0.800869 0.387357
vt 0.789647 0.224546
vt 0.851759 0.231829
vt 0.601583 0.582899
vt 0.550922 0.588701
vt 0.538060 0.468279
vt 0.675088 0.433962
vt 0.725909 0.428894
vt 0.725909 0.582918
vt 0.599892 0.461197
vt 0.739969 0.256626
vt 0.739969 0.205794
vt 0.790572 0.204883
vt 0.638206 0.099609
vt 0.605645 0.229763
vt 0.515976 0.145303
vt 0.704023 0.169872
vt 0.559189 0.027447
vt 0.678729 0.046274
vt 0.880830 0.079041
vt 0.859203 0.204883
vt 0.794084 0.107440
vt 0.772124 0.000000
vt 0.679144 0.075515
vt 0.518125 0.229763
vt 1.000000 0.369903
vt 1.000000 0.514307
vt 0.890166 0.439167
vt 0.542519 0.266268
vt 0.655581 0.224950
vt 0.651704 0.346040
vt 0.728797 0.204883
vt 0.807434 0.688787
vt 0.826030 0.788852
vt 0.713979 0.740873
vt 0.894982 0.543467
vt 0.882969 0.343923
vt 0.541590 0.397993
vt 0.723872 0.868429
vt 0.639329 0.812066
vt 0.821824 0.446106
vt 0.655581 0.431119
vt 0.826030 0.903331
vt 0.029602 0.669162
vt 0.021790 0.410966
vt 0.188075 0.516201
vt 0.135224 0.000000
vt 0.340481 0.157487
vt 0.190012 0.214672
vt 0.188075 0.761631
vt 0.000000 0.807341
vt 0.340481 0.396825
vt 0.000000 0.141397
vt 0.146978 0.396825
vt 0.479659 0.361895
vt 0.479659 0.650140
vt 0.293997 0.492076
vt 0.022360 0.701300
vt 0.203295 0.640010
vt 0.201249 0.858147
vt 0.104428 0.386788
vt 0.454005 0.002067
vt 0.475411 0.172812
vt 0.306510 0.089515
vt 0.316159 0.687877
vt 0.270228 0.326870
vt 0.020800 0.932076
vt 0.314163 0.322102
vt 0.179025 0.232225
vt 0.180811 0.513662
vt 0.203295 0.984875
vt 0.473040 0.401692
vt 0.737392 0.567864
vt 0.726134 0.409474
vt 0.788444 0.413406
vt 0.892039 0.323465
vt 0.880830 0.164387
vt 0.942866 0.170861
vt 0.739969 0.329212
vt 0.690133 0.328423
vt 0.679144 0.204883
vt 0.789647 0.401460
vt 0.739506 0.409474
vt 0.726134 0.266181
vt 0.728450 0.234327
vt 0.639273 0.768432
vt 0.639273 0.819189
vt 0.590647 0.821204
vt 0.892089 0.160423
vt 0.880830 0.000000
vt 0.943147 0.004838
vt 0.539751 0.867264
vt 0.528528 0.704929
vt 0.590647 0.712229
vt 0.906859 0.594050
vt 0.957930 0.590194
vt 0.957930 0.682251
vt 0.837250 0.694901
vt 0.888133 0.688787
vt 0.888133 0.847109
vt 0.637498 0.706016
vt 0.637498 0.768432
vt 0.590647 0.767345
vt 0.904063 0.547324
vt 0.955134 0.543467
vt 0.800918 0.554509
vt 0.789647 0.393324
vt 0.852030 0.397889
vt 0.899348 0.847134
vt 0.950208 0.695372
vt 0.895597 0.684078
vt 0.846519 0.683560
vt 0.821824 0.584887
vt 0.899347 0.857034
vt 0.950205 0.852530
vt 0.950205 0.994502
vt 0.835696 0.543467
vt 0.895597 0.544100
vt 0.881725 0.585519
vt 0.787977 0.310807
vt 0.739969 0.305344
vt 0.663881 0.590114
vt 0.851759 0.393324
vt 0.663881 0.589104
vt 0.539751 0.435975
vt 0.790572 0.255716
vt 0.788444 0.571086
vt 0.942866 0.328769
vt 0.787332 0.256400
vt 0.590647 0.770447
vt 0.943147 0.164387
vt 0.590647 0.873245
vt 0.895597 0.686958
vt 0.826030 0.854571
vt 0.590647 0.704929
vt 0.852030 0.558249
vt 0.888133 1.000000
vt 0.787977 0.262089
vn -0.984300 0.161300 0.072100
vn -0.032900 0.136600 -0.990100
vn 0.993000 -0.092500 -0.072800
vn 0.052700 -0.069600 0.996200
vn -0.276300 -0.960800 0.021400
vn 0.276300 0.960800 -0.021400
vn 0.710400 -0.693900 -0.118100
vn 0.480500 -0.406800 -0.776900
vn 0.186100 -0.953200 0.238400
vn -0.313600 -0.932300 -0.180100
vn -0.106900 -0.545100 -0.831500
vn 0.546400 0.211600 -0.810400
vn 0.939300 -0.010100 0.342900
vn 0.059700 -0.545900 0.835700
vn -0.903300 -0.391300 0.175800
vn -0.457200 0.013300 -0.889200
vn 0.866900 0.498500 -0.005700
vn 0.521100 0.024800 0.853100
vn -0.610600 -0.213600 0.762500
vn -0.961600 0.121300 -0.246100
vn -0.007100 0.520600 -0.853700
vn 0.421500 0.869800 0.256400
vn 0.218400 0.606000 0.764900
vn -0.488500 0.481700 0.727600
vn -0.715900 0.694500 0.071600
vn -0.157800 0.949600 -0.270800
vn 0.631100 -0.754900 -0.178600
vn 0.409300 -0.340600 -0.846500
vn 0.157200 -0.966600 0.202600
vn -0.225300 -0.954600 -0.194900
vn -0.024900 -0.430300 -0.902400
vn 0.460500 0.167500 -0.871700
vn 0.872100 -0.014000 0.489100
vn 0.045500 -0.553100 0.831900
vn -0.914500 -0.317700 0.250700
vn -0.304200 0.041000 -0.951700
vn 0.820800 0.546800 0.165100
vn 0.452500 -0.001800 0.891700
vn -0.590100 -0.179800 0.787100
vn -0.933200 0.236900 -0.270300
vn 0.062600 0.474900 -0.877800
vn 0.428100 0.816500 0.387500
vn 0.236100 0.585000 0.775900
vn -0.406000 0.528600 0.745500
vn -0.622000 0.780900 0.058100
vn -0.098200 0.956000 -0.276300
vn -0.986600 0.159300 0.035100
vn -0.024900 -0.041300 -0.998800
vn 0.994600 -0.091600 -0.047900
vn 0.044000 0.108600 0.993100
vn -0.266000 -0.945200 0.189200
vn 0.266000 0.945200 -0.189200
vn -0.989800 -0.139000 0.032500
vn -0.051300 0.262000 -0.963700
vn 0.978100 0.206800 -0.023700
vn 0.050600 -0.193700 0.979800
vn 0.015700 -0.992400 -0.121900
vn -0.015700 0.992400 0.121900
vn -0.998500 -0.053100 0.011600
vn 0.008300 -0.054300 -0.998500
vn 0.992400 0.120800 -0.025200
vn -0.003800 0.124100 0.992300
vn -0.064400 -0.978400 0.196300
vn 0.064400 0.978400 -0.196300
vn -0.986600 0.159300 0.035000
s off
f 4/1/1 3/2/1 1/3/1
f 8/4/2 7/5/2 3/6/2
f 8/7/3 6/8/3 5/9/3
f 6/10/4 2/11/4 1/12/4
f 3/2/5 7/13/5 5/9/5
f 8/14/6 4/15/6 2/16/6
f 9/17/7 10/18/7 11/19/7
f 10/18/8 9/17/8 14/20/8
f 9/17/9 11/19/9 12/21/9
f 9/17/10 12/21/10 13/22/10
f 9/23/11 13/24/11 14/25/11
f 10/26/12 14/25/12 19/27/12
f 11/19/13 10/18/13 15/28/13
f 12/29/14 11/30/14 16/31/14
f 13/32/15 12/33/15 17/34/15
f 14/25/16 13/24/16 18/35/16
f 10/36/17 19/37/17 15/38/17
f 11/30/18 15/39/18 16/31/18
f 12/29/19 16/31/19 17/40/19
f 13/32/20 17/34/20 18/41/20
f 14/25/21 18/35/21 19/27/21
f 15/38/22 19/37/22 20/42/22
f 16/43/23 15/38/23 20/42/23
f 17/40/24 16/31/24 20/44/24
f 18/41/25 17/34/25 20/45/25
f 19/37/26 18/46/26 20/42/26
f 21/47/27 22/48/27 23/49/27
f 22/50/28 21/51/28 26/52/28
f 21/47/29 23/49/29 24/53/29
f 21/47/30 24/53/30 25/54/30
f 21/51/31 25/55/31 26/52/31
f 22/50/32 26/52/32 31/56/32
f 23/49/33 22/48/33 27/57/33
f 24/58/34 23/59/34 28/60/34
f 25/61/35 24/62/35 29/63/35
f 26/52/36 25/55/36 30/64/36
f 22/65/37 31/66/37 27/67/37
f 23/59/38 27/68/38 28/60/38
f 24/58/39 28/60/39 29/69/39
f 25/61/40 29/63/40 30/70/40
f 26/52/41 30/64/41 31/56/41
f 27/67/42 31/66/42 32/71/42
f 28/72/43 27/67/43 32/71/43
f 29/69/44 28/60/44 32/73/44
f 30/70/45 29/63/45 32/74/45
f 31/66/46 30/75/46 32/71/46
f 36/76/47 35/77/47 33/78/47
f 40/79/48 39/80/48 35/81/48
f 40/82/49 38/83/49 37/84/49
f 38/85/50 34/86/50 33/87/50
f 33/87/51 35/88/51 39/5/51
f 40/89/52 36/90/52 34/91/52
f 44/92/53 43/93/53 41/94/53
f 48/95/54 47/96/54 43/97/54
f 48/98/55 46/99/55 45/100/55
f 46/101/56 42/102/56 41/103/56
f 41/104/57 43/105/57 47/106/57
f 48/98/58 44/107/58 42/108/58
f 52/109/59 51/110/59 49/111/59
f 56/112/60 55/102/60 51/113/60
f 56/114/61 54/115/61 53/116/61
f 54/117/62 50/118/62 49/119/62
f 49/120/63 51/121/63 55/122/63
f 56/123/64 52/124/64 50/14/64
f 2/125/1 4/1/1 1/3/1
f 4/126/2 8/4/2 3/6/2
f 7/13/3 8/7/3 5/9/3
f 5/127/4 6/10/4 1/12/4
f 1/128/5 3/2/5 5/9/5
f 6/129/6 8/14/6 2/16/6
f 34/130/65 36/76/65 33/78/65
f 36/131/48 40/79/48 35/81/48
f 39/15/49 40/82/49 37/84/49
f 37/132/50 38/85/50 33/87/50
f 37/132/51 33/87/51 39/5/51
f 38/133/52 40/89/52 34/91/52
f 42/134/53 44/92/53 41/94/53
f 44/135/54 48/95/54 43/97/54
f 47/136/55 48/98/55 45/100/55
f 45/137/56 46/101/56 41/103/56
f 45/138/57 41/104/57 47/106/57
f 46/99/58 48/98/58 42/108/58
f 50/139/59 52/109/59 49/111/59
f 52/118/60 56/112/60 51/113/60
f 55/122/61 56/114/61 53/116/61
f 53/140/62 54/117/62 49/119/62
f 53/116/63 49/120/63 55/122/63
f 54/141/64 56/123/64 50/14/64
